<svg width="96" height="96" viewBox="0 0 96 96" fill="none" xmlns="http://www.w3.org/2000/svg">
<circle cx="48" cy="48" r="48" fill="url(#paint0_linear_39_314)"/>
<path d="M47.6602 17.5596C47.9161 17.467 48.2008 17.4822 48.4473 17.6055L58.5 22.6318L58.5527 22.6055L58.5879 22.6758L78.4473 32.6055C78.4611 32.6124 78.4738 32.6214 78.4873 32.6289C78.4998 32.6359 78.5131 32.6418 78.5254 32.6494C78.5314 32.6531 78.5371 32.6573 78.543 32.6611C78.5619 32.6734 78.5797 32.6868 78.5977 32.7002C78.6172 32.7148 78.636 32.7302 78.6543 32.7461C78.6707 32.7604 78.6868 32.7748 78.7021 32.79C78.7153 32.803 78.7279 32.8164 78.7402 32.8301C78.7584 32.8502 78.7755 32.8711 78.792 32.8926C78.8018 32.9054 78.8111 32.9184 78.8203 32.9316C78.8349 32.9528 78.8493 32.9739 78.8623 32.9961C78.8745 33.017 78.8848 33.0388 78.8955 33.0605C78.903 33.0759 78.9112 33.0907 78.918 33.1064C78.9314 33.1377 78.9429 33.1696 78.9531 33.2021C78.9559 33.211 78.9594 33.2196 78.9619 33.2285C78.97 33.257 78.975 33.2862 78.9805 33.3154C78.9838 33.3333 78.9878 33.351 78.9902 33.3691C78.9959 33.4122 79 33.4559 79 33.5V63.5C78.9999 63.8787 78.786 64.2252 78.4473 64.3945L48.4473 79.3945C48.441 79.3977 48.434 79.3993 48.4277 79.4023C48.4073 79.412 48.3861 79.4195 48.3652 79.4277C48.3473 79.4348 48.3297 79.4423 48.3115 79.4482C48.2906 79.4551 48.2693 79.4604 48.248 79.4658C48.2278 79.471 48.2079 79.4766 48.1875 79.4805C48.1629 79.4852 48.1381 79.4884 48.1133 79.4912C48.0983 79.4929 48.0834 79.4951 48.0684 79.4961C48.0456 79.4977 48.0228 79.4971 48 79.4971C47.9768 79.4971 47.9538 79.4977 47.9307 79.4961C47.9156 79.4951 47.9007 79.4929 47.8857 79.4912C47.8609 79.4883 47.8361 79.4852 47.8115 79.4805C47.7911 79.4766 47.7712 79.471 47.751 79.4658C47.7297 79.4603 47.7084 79.4551 47.6875 79.4482C47.6693 79.4423 47.6517 79.4348 47.6338 79.4277C47.6129 79.4195 47.5917 79.412 47.5713 79.4023C47.5652 79.3995 47.5587 79.3975 47.5527 79.3945L17.5527 64.3945C17.214 64.2252 17.0001 63.8787 17 63.5V33.5C17 33.4559 17.0031 33.4122 17.0088 33.3691C17.0112 33.351 17.0152 33.3333 17.0186 33.3154C17.0241 33.2862 17.0291 33.257 17.0371 33.2285C17.0396 33.2195 17.0441 33.2111 17.0469 33.2021C17.057 33.1697 17.0677 33.1376 17.0811 33.1064C17.0878 33.0908 17.096 33.0758 17.1035 33.0605C17.1142 33.0388 17.1245 33.017 17.1367 32.9961C17.1497 32.9739 17.1641 32.9528 17.1787 32.9316C17.1879 32.9184 17.1972 32.9054 17.207 32.8926C17.2235 32.8711 17.2406 32.8502 17.2588 32.8301C17.2647 32.8236 17.2703 32.8169 17.2764 32.8105L17.3232 32.7637C17.33 32.7574 17.3377 32.7522 17.3447 32.7461C17.363 32.7302 17.3818 32.7148 17.4014 32.7002C17.4193 32.6868 17.4372 32.6734 17.4561 32.6611C17.4622 32.6572 17.4684 32.6533 17.4746 32.6494C17.4866 32.642 17.4994 32.6358 17.5117 32.6289C17.5254 32.6212 17.5386 32.6125 17.5527 32.6055L47.5527 17.6055L47.6602 17.5596ZM19 62.8818L47 76.8818V49.1182L36.5 43.8682L36.4473 43.8945L36.4121 43.8242L19 35.1182V62.8818ZM49 49.1182V76.8818L77 62.8818V35.1182L49 49.1182ZM66.4473 28.8945L38.7363 42.75L48 47.3818L75.7637 33.5L66.4121 28.8242L66.4473 28.8945ZM30.7363 38.75L36.5 41.6318L64.2637 27.75L58.5 24.8682L30.7363 38.75ZM20.2363 33.5L28.5879 37.6758L28.5527 37.6055L56.2637 23.75L48 19.6182L20.2363 33.5Z" fill="#676A73"/>
<defs>
<linearGradient id="paint0_linear_39_314" x1="96" y1="-5.72205e-06" x2="-5.72205e-06" y2="96" gradientUnits="userSpaceOnUse">
<stop stop-color="#676A73"/>
<stop offset="0.620192" stop-color="#676A73" stop-opacity="0.25"/>
</linearGradient>
</defs>
</svg>
